<?xml version="1.0" encoding="UTF-8"?>
<svg xmlns="http://www.w3.org/2000/svg" xmlns:xlink="http://www.w3.org/1999/xlink" width="188px" height="150px" viewBox="0 0 187 150" version="1.1">
<g id="surface1">
<path style=" stroke:none;fill-rule:nonzero;fill:rgb(0%,0%,0%);fill-opacity:1;" d="M 79.476562 56.222656 C 74.332031 56.222656 70.125 60.441406 70.125 65.597656 L 70.125 89.035156 C 70.125 91.625 68.03125 93.722656 65.449219 93.722656 C 62.867188 93.722656 60.773438 91.625 60.773438 89.035156 L 60.773438 66.609375 C 60.773438 61.515625 62.152344 56.511719 64.773438 52.140625 L 87.492188 14.171875 C 90.148438 9.730469 88.71875 3.976562 84.289062 1.308594 C 80.066406 -1.230469 74.726562 0.0507812 71.929688 4.007812 C 71.871094 4.074219 71.746094 4.070312 71.695312 4.148438 L 37.433594 55.679688 C 34.347656 60.320312 32.726562 65.714844 32.726562 71.277344 L 32.726562 94.78125 L 6.394531 103.582031 C 2.574219 104.855469 0 108.4375 0 112.472656 L 0 140.597656 C 0 143.769531 2.488281 149.972656 9.351562 149.972656 C 10.136719 149.972656 10.929688 149.875 11.703125 149.671875 L 64.0625 136.015625 C 78.644531 131.832031 88.824219 118.300781 88.824219 103.097656 L 88.824219 65.597656 C 88.824219 60.441406 84.617188 56.222656 79.476562 56.222656 Z M 180.605469 103.605469 L 154.273438 94.804688 L 154.273438 71.300781 C 154.273438 65.738281 152.652344 60.347656 149.566406 55.703125 L 115.304688 4.175781 C 115.25 4.09375 115.128906 4.105469 115.070312 4.035156 C 112.273438 0.0742188 106.933594 -1.203125 102.710938 1.335938 C 98.28125 4 96.851562 9.757812 99.507812 14.199219 L 122.226562 52.164062 C 124.847656 56.539062 126.226562 61.539062 126.226562 66.636719 L 126.226562 89.0625 C 126.226562 91.652344 124.132812 93.75 121.550781 93.75 C 118.96875 93.75 116.875 91.652344 116.875 89.0625 L 116.875 65.625 C 116.875 60.46875 112.667969 56.25 107.523438 56.25 C 102.382812 56.25 98.175781 60.46875 98.175781 65.625 L 98.175781 103.125 C 98.175781 118.328125 108.355469 131.859375 122.9375 136.039062 L 175.296875 149.695312 C 176.070312 149.898438 176.867188 149.996094 177.648438 149.996094 C 184.511719 149.996094 187 143.792969 187 140.621094 L 187 112.496094 C 187 108.464844 184.425781 104.882812 180.605469 103.605469 Z M 180.605469 103.605469 "/>
</g>
</svg>
