<?xml version="1.0" encoding="UTF-8"?>
<svg xmlns="http://www.w3.org/2000/svg" xmlns:xlink="http://www.w3.org/1999/xlink" width="150px" height="120px" viewBox="0 0 150 120" version="1.1">
<g id="surface1">
<path style=" stroke:none;fill-rule:nonzero;fill:rgb(0%,0%,0%);fill-opacity:1;" d="M 63.8125 44.976562 C 59.707031 44.976562 56.351562 48.351562 56.351562 52.476562 L 56.351562 71.226562 C 56.351562 73.300781 54.679688 74.976562 52.617188 74.976562 C 50.558594 74.976562 48.886719 73.300781 48.886719 71.226562 L 48.886719 53.289062 C 48.886719 49.210938 49.988281 45.210938 52.078125 41.710938 L 70.207031 11.335938 C 72.324219 7.785156 71.183594 3.179688 67.652344 1.046875 C 64.28125 -0.984375 60.019531 0.0390625 57.789062 3.207031 C 57.742188 3.257812 57.644531 3.257812 57.601562 3.320312 L 30.265625 44.542969 C 27.804688 48.257812 26.511719 52.570312 26.511719 57.023438 L 26.511719 75.824219 L 5.5 82.867188 C 2.453125 83.882812 0.398438 86.75 0.398438 89.976562 L 0.398438 112.476562 C 0.398438 115.015625 2.382812 119.976562 7.859375 119.976562 C 8.488281 119.976562 9.121094 119.898438 9.738281 119.738281 L 51.511719 108.8125 C 63.148438 105.464844 71.269531 94.640625 71.269531 82.476562 L 71.269531 52.476562 C 71.269531 48.351562 67.914062 44.976562 63.8125 44.976562 Z M 144.5 82.882812 L 123.488281 75.84375 L 123.488281 57.039062 C 123.488281 52.589844 122.195312 48.277344 119.734375 44.5625 L 92.398438 3.339844 C 92.355469 3.273438 92.257812 3.285156 92.210938 3.226562 C 89.980469 0.0585938 85.71875 -0.960938 82.347656 1.070312 C 78.816406 3.199219 77.675781 7.804688 79.792969 11.359375 L 97.921875 41.730469 C 100.011719 45.230469 101.113281 49.230469 101.113281 53.308594 L 101.113281 71.25 C 101.113281 73.320312 99.441406 75 97.382812 75 C 95.320312 75 93.648438 73.320312 93.648438 71.25 L 93.648438 52.5 C 93.648438 48.375 90.292969 45 86.1875 45 C 82.085938 45 78.730469 48.375 78.730469 52.5 L 78.730469 82.5 C 78.730469 94.664062 86.851562 105.488281 98.488281 108.832031 L 140.261719 119.757812 C 140.878906 119.917969 141.515625 119.996094 142.140625 119.996094 C 147.617188 119.996094 149.601562 115.035156 149.601562 112.496094 L 149.601562 89.996094 C 149.601562 86.773438 147.546875 83.90625 144.5 82.882812 Z M 144.5 82.882812 "/>
</g>
</svg>
